<svg width="139" height="124" viewBox="0 0 139 124" fill="none" xmlns="http://www.w3.org/2000/svg">
<path d="M50.0405 0C42.8472 0 36.8808 4.93188 35.1727 11.5959C34.9802 11.5959 34.8359 11.5478 34.6434 11.5478C26.151 11.5478 19.2463 18.4524 19.2463 26.9449C19.2463 28.0997 19.3907 29.2304 19.6553 30.313C12.6304 33.1999 7.69854 40.0805 7.69854 48.1159C7.69854 51.1472 8.46839 53.9619 9.69535 56.5121C3.92144 59.8321 0 65.9909 0 73.1361C0 81.1474 4.90782 88.028 11.8846 90.9149C11.6681 92.0216 11.5478 93.1523 11.5478 94.3071C11.5478 103.882 19.2945 111.629 28.8695 111.629C29.8559 111.629 30.8182 111.509 31.7565 111.34C34.066 118.197 40.4654 123.177 48.1159 123.177C57.6909 123.177 65.4376 115.43 65.4376 105.855V15.3971C65.4376 6.90463 58.533 0 50.0405 0ZM138.574 73.1361C138.574 65.9909 134.652 59.8321 128.878 56.5121C130.129 53.9619 130.875 51.1472 130.875 48.1159C130.875 40.0805 125.943 33.1999 118.918 30.313C119.159 29.2304 119.327 28.0997 119.327 26.9449C119.327 18.4524 112.423 11.5478 103.93 11.5478C103.738 11.5478 103.569 11.5959 103.401 11.5959C101.693 4.93188 95.7265 0 88.5332 0C80.0407 0 73.1361 6.88057 73.1361 15.3971V105.855C73.1361 115.43 80.8828 123.177 90.4578 123.177C98.1083 123.177 104.508 118.197 106.817 111.34C107.755 111.509 108.718 111.629 109.704 111.629C119.279 111.629 127.026 103.882 127.026 94.3071C127.026 93.1523 126.906 92.0216 126.689 90.9149C133.666 88.028 138.574 81.1474 138.574 73.1361Z" fill="#88CEEB"/>
</svg>
