<svg width="91" height="72" viewBox="0 0 91 72" fill="none" xmlns="http://www.w3.org/2000/svg">
<path fill-rule="evenodd" clip-rule="evenodd" d="M0.0178223 7.71324C0.0178223 3.76966 3.2147 0.572784 7.15828 0.572784H83.3232C87.2666 0.572784 90.4637 3.76966 90.4637 7.71324C90.4637 11.6568 87.2666 14.8537 83.3232 14.8537H7.15828C3.2147 14.8537 0.0178223 11.6568 0.0178223 7.71324ZM0.0178223 36.2751C0.0178223 32.3317 3.2147 29.1346 7.15828 29.1346H83.3232C87.2666 29.1346 90.4637 32.3317 90.4637 36.2751C90.4637 40.2185 87.2666 43.4156 83.3232 43.4156H7.15828C3.2147 43.4156 0.0178223 40.2185 0.0178223 36.2751ZM0.0178223 64.8369C0.0178223 60.8935 3.2147 57.6965 7.15828 57.6965H83.3232C87.2666 57.6965 90.4637 60.8935 90.4637 64.8369C90.4637 68.7803 87.2666 71.9774 83.3232 71.9774H7.15828C3.2147 71.9774 0.0178223 68.7803 0.0178223 64.8369Z" fill="#90EE90"/>
</svg>
