<svg width="139" height="139" viewBox="0 0 139 139" fill="none" xmlns="http://www.w3.org/2000/svg">
<path d="M69.2868 0C31.1791 0 0 31.1791 0 69.2868C0 107.395 31.1791 138.574 69.2868 138.574C107.395 138.574 138.574 107.395 138.574 69.2868C138.574 31.1791 107.395 0 69.2868 0ZM69.2868 17.3217C98.0409 17.3217 121.252 40.5328 121.252 69.2868C121.252 98.0409 98.0409 121.252 69.2868 121.252C40.5328 121.252 17.3217 98.0409 17.3217 69.2868C17.3217 40.5328 40.5328 17.3217 69.2868 17.3217ZM60.626 34.6434V73.0976L63.3975 75.3494L72.0583 84.0103L77.9477 90.5926L90.4193 78.1209L83.8371 72.2315L77.9477 66.3422V34.9899H60.626V34.6434Z" fill="#FADF0C"/>
</svg>
