<svg width="139" height="139" viewBox="0 0 139 139" fill="none" xmlns="http://www.w3.org/2000/svg">
<path d="M116.922 108.261H90.939C87.4935 108.261 84.1891 109.629 81.7528 112.066C79.3165 114.502 77.9478 117.807 77.9478 121.252V129.913H86.6086V121.252C86.6086 120.104 87.0648 119.002 87.877 118.19C88.6891 117.378 89.7905 116.922 90.939 116.922H116.922C118.07 116.922 119.172 117.378 119.984 118.19C120.796 119.002 121.252 120.104 121.252 121.252V129.913H129.913V121.252C129.913 117.807 128.544 114.502 126.108 112.066C123.671 109.629 120.367 108.261 116.922 108.261Z" fill="#34A853"/>
<path d="M86.6086 86.6086C86.6086 90.0345 87.6245 93.3835 89.5279 96.232C91.4312 99.0805 94.1365 101.301 97.3016 102.612C100.467 103.923 103.95 104.266 107.31 103.597C110.67 102.929 113.756 101.279 116.179 98.8569C118.601 96.4344 120.251 93.348 120.919 89.9879C121.588 86.6278 121.245 83.145 119.934 79.9798C118.622 76.8147 116.402 74.1094 113.554 72.2061C110.705 70.3028 107.356 69.2869 103.93 69.2869C99.3364 69.2869 94.9305 71.1118 91.6821 74.3603C88.4336 77.6087 86.6086 82.0146 86.6086 86.6086ZM112.591 86.6086C112.591 88.3215 112.083 89.996 111.132 91.4203C110.18 92.8446 108.827 93.9546 107.245 94.6102C105.662 95.2657 103.921 95.4372 102.241 95.103C100.561 94.7688 99.0174 93.944 97.8062 92.7327C96.595 91.5215 95.7701 89.9783 95.4359 88.2982C95.1017 86.6182 95.2732 84.8768 95.9288 83.2942C96.5843 81.7116 97.6944 80.359 99.1186 79.4073C100.543 78.4557 102.217 77.9477 103.93 77.9477C106.227 77.9477 108.43 78.8602 110.055 80.4844C111.679 82.1087 112.591 84.3116 112.591 86.6086Z" fill="#34A853"/>
<path d="M25.9826 90.939V86.6086H17.3218V90.939C17.3218 98.9785 20.5155 106.689 26.2002 112.374C31.885 118.058 39.5953 121.252 47.6348 121.252H60.6261V112.591H47.6348C41.8923 112.591 36.385 110.31 32.3244 106.249C28.2638 102.189 25.9826 96.6815 25.9826 90.939Z" fill="#34A853"/>
<path d="M82.2781 43.3043H112.591V51.9651H82.2781V43.3043Z" fill="#34A853"/>
<path d="M82.2781 25.9826H125.582V34.6434H82.2781V25.9826Z" fill="#34A853"/>
<path d="M82.2781 8.66086H125.582V17.3217H82.2781V8.66086Z" fill="#34A853"/>
<path d="M47.6347 47.6347H21.6522C18.2067 47.6347 14.9023 49.0034 12.4659 51.4398C10.0296 53.8761 8.66089 57.1805 8.66089 60.626V69.2868H17.3217V60.626C17.3217 59.4775 17.778 58.376 18.5901 57.5639C19.4022 56.7518 20.5037 56.2956 21.6522 56.2956H47.6347C48.7832 56.2956 49.8847 56.7518 50.6968 57.5639C51.5089 58.376 51.9652 59.4775 51.9652 60.626V69.2868H60.626V60.626C60.626 57.1805 59.2573 53.8761 56.821 51.4398C54.3846 49.0034 51.0802 47.6347 47.6347 47.6347Z" fill="#34A853"/>
<path d="M34.6435 43.3043C38.0694 43.3043 41.4184 42.2884 44.2669 40.3851C47.1155 38.4817 49.3356 35.7764 50.6467 32.6113C51.9577 29.4462 52.3007 25.9634 51.6324 22.6033C50.964 19.2432 49.3143 16.1568 46.8918 13.7343C44.4693 11.3118 41.3829 9.66206 38.0228 8.9937C34.6627 8.32534 31.1799 8.66836 28.0148 9.9794C24.8496 11.2904 22.1443 13.5106 20.241 16.3591C18.3377 19.2077 17.3218 22.5567 17.3218 25.9826C17.3218 30.5766 19.1467 34.9824 22.3952 38.2309C25.6436 41.4793 30.0495 43.3043 34.6435 43.3043ZM34.6435 17.3217C36.3564 17.3217 38.0309 17.8297 39.4552 18.7813C40.8795 19.733 41.9896 21.0856 42.6451 22.6682C43.3006 24.2508 43.4721 25.9922 43.1379 27.6722C42.8037 29.3523 41.9789 30.8955 40.7676 32.1067C39.5564 33.318 38.0132 34.1428 36.3331 34.477C34.6531 34.8112 32.9117 34.6397 31.3291 33.9842C29.7466 33.3286 28.3939 32.2186 27.4423 30.7943C26.4906 29.37 25.9826 27.6955 25.9826 25.9826C25.9826 23.6856 26.8951 21.4827 28.5193 19.8584C30.1436 18.2342 32.3465 17.3217 34.6435 17.3217Z" fill="#34A853"/>
</svg>
