<svg width="139" height="139" viewBox="0 0 139 139" fill="none" xmlns="http://www.w3.org/2000/svg">
<path d="M69.2869 63.513C76.9436 63.513 84.2866 66.5546 89.7007 71.9686C95.1148 77.3827 98.1564 84.7258 98.1564 92.3825V127.026H40.4174V92.3825C40.4174 84.7258 43.459 77.3827 48.8731 71.9686C54.2871 66.5546 61.6302 63.513 69.2869 63.513ZM30.5324 80.8693C29.6136 83.9687 29.0708 87.1673 28.9158 90.3963L28.8696 92.3825V127.026H11.5479V101.043C11.5467 96.0638 13.3841 91.2591 16.7076 87.5509C20.0311 83.8428 24.6067 81.4922 29.5567 80.9502L30.5324 80.8693ZM108.041 80.8693C113.18 81.1825 118.005 83.4442 121.533 87.1931C125.06 90.942 127.025 95.8955 127.026 101.043V127.026H109.704V92.3825C109.704 88.3812 109.127 84.5184 108.041 80.8693ZM31.7565 46.1912C35.5849 46.1912 39.2564 47.712 41.9634 50.4191C44.6705 53.1261 46.1913 56.7977 46.1913 60.626C46.1913 64.4543 44.6705 68.1259 41.9634 70.8329C39.2564 73.54 35.5849 75.0608 31.7565 75.0608C27.9282 75.0608 24.2566 73.54 21.5496 70.8329C18.8426 68.1259 17.3218 64.4543 17.3218 60.626C17.3218 56.7977 18.8426 53.1261 21.5496 50.4191C24.2566 47.712 27.9282 46.1912 31.7565 46.1912ZM106.817 46.1912C110.646 46.1912 114.317 47.712 117.024 50.4191C119.731 53.1261 121.252 56.7977 121.252 60.626C121.252 64.4543 119.731 68.1259 117.024 70.8329C114.317 73.54 110.646 75.0608 106.817 75.0608C102.989 75.0608 99.3174 73.54 96.6104 70.8329C93.9033 68.1259 92.3825 64.4543 92.3825 60.626C92.3825 56.7977 93.9033 53.1261 96.6104 50.4191C99.3174 47.712 102.989 46.1912 106.817 46.1912ZM69.2869 11.5478C75.4122 11.5478 81.2867 13.9811 85.618 18.3124C89.9492 22.6436 92.3825 28.5181 92.3825 34.6434C92.3825 40.7688 89.9492 46.6432 85.618 50.9745C81.2867 55.3058 75.4122 57.7391 69.2869 57.7391C63.1616 57.7391 57.2871 55.3058 52.9558 50.9745C48.6246 46.6432 46.1913 40.7688 46.1913 34.6434C46.1913 28.5181 48.6246 22.6436 52.9558 18.3124C57.2871 13.9811 63.1616 11.5478 69.2869 11.5478Z" fill="#A388EE"/>
</svg>
