<svg width="91" height="91" viewBox="0 0 91 91" fill="none" xmlns="http://www.w3.org/2000/svg">
<path d="M62.3665 45.2229L88.0793 19.5101C91.2347 16.3548 91.2347 11.2389 88.0793 8.08103L82.3648 2.36649C79.2095 -0.788832 74.0936 -0.788832 70.9357 2.36649L45.2229 28.0793L19.5101 2.36649C16.3548 -0.788832 11.2389 -0.788832 8.08103 2.36649L2.36649 8.08103C-0.788832 11.2364 -0.788832 16.3522 2.36649 19.5101L28.0793 45.2229L2.36649 70.9357C-0.788832 74.0911 -0.788832 79.2069 2.36649 82.3648L8.08103 88.0793C11.2364 91.2347 16.3548 91.2347 19.5101 88.0793L45.2229 62.3665L70.9357 88.0793C74.0911 91.2347 79.2095 91.2347 82.3648 88.0793L88.0793 82.3648C91.2347 79.2095 91.2347 74.0936 88.0793 70.9357L62.3665 45.2229Z" fill="#FF4911"/>
</svg>
